<svg width="30" height="33" viewBox="0 0 30 33" fill="none" xmlns="http://www.w3.org/2000/svg">
<path d="M27.5 0.5H7.5C6.83696 0.5 6.20107 0.763392 5.73223 1.23223C5.26339 1.70107 5 2.33696 5 3V6.75H2.5C1.83696 6.75 1.20107 7.01339 0.732233 7.48223C0.263392 7.95107 0 8.58696 0 9.25V24.25C0 24.913 0.263392 25.5489 0.732233 26.0178C1.20107 26.4866 1.83696 26.75 2.5 26.75H5V30.5C5 31.163 5.26339 31.7989 5.73223 32.2678C6.20107 32.7366 6.83696 33 7.5 33H27.5C28.163 33 28.7989 32.7366 29.2678 32.2678C29.7366 31.7989 30 31.163 30 30.5V3C30 2.33696 29.7366 1.70107 29.2678 1.23223C28.7989 0.763392 28.163 0.5 27.5 0.5ZM21.25 13H27.5V20.5H21.25V13ZM7.5 3H27.5V10.5H21.25V9.25C21.25 8.58696 20.9866 7.95107 20.5178 7.48223C20.0489 7.01339 19.413 6.75 18.75 6.75H7.5V3ZM2.5 9.25H18.75V24.25H2.5V9.25ZM7.5 30.5V26.75H18.75C19.413 26.75 20.0489 26.4866 20.5178 26.0178C20.9866 25.5489 21.25 24.913 21.25 24.25V23H27.5V30.5H7.5ZM6.9125 20.8031L5.0375 13.3031C4.9945 13.1428 4.98384 12.9756 5.00616 12.8111C5.02847 12.6467 5.08331 12.4883 5.16747 12.3453C5.25163 12.2023 5.36343 12.0774 5.49634 11.9781C5.62926 11.8787 5.78063 11.8068 5.94163 11.7665C6.10263 11.7263 6.27004 11.7185 6.43408 11.7436C6.59812 11.7688 6.75552 11.8263 6.89709 11.9129C7.03865 11.9995 7.16156 12.1134 7.25864 12.248C7.35571 12.3826 7.42502 12.5352 7.4625 12.6969L8.51875 16.9156L9.50625 14.9375C9.60992 14.7295 9.76953 14.5545 9.96715 14.4322C10.1648 14.3099 10.3926 14.2451 10.625 14.2451C10.8574 14.2451 11.0852 14.3099 11.2828 14.4322C11.4805 14.5545 11.6401 14.7295 11.7438 14.9375L12.7313 16.9156L13.7875 12.6969C13.8724 12.3803 14.0784 12.1097 14.3609 11.9434C14.6434 11.7772 14.98 11.7286 15.298 11.8081C15.616 11.8876 15.8901 12.0889 16.0611 12.3685C16.2322 12.6481 16.2865 12.9838 16.2125 13.3031L14.3375 20.8031C14.2752 21.0506 14.1387 21.2731 13.9462 21.4407C13.7538 21.6083 13.5146 21.7129 13.2609 21.7406C13.2158 21.7456 13.1704 21.7482 13.125 21.7484C12.8928 21.7486 12.6651 21.6841 12.4675 21.5621C12.2699 21.4401 12.1102 21.2655 12.0062 21.0578L10.625 18.2953L9.24375 21.0594C9.12959 21.288 8.94809 21.4761 8.72371 21.5985C8.49934 21.7208 8.24287 21.7714 7.98885 21.7435C7.73483 21.7155 7.49547 21.6104 7.30302 21.4423C7.11057 21.2742 6.97428 21.0511 6.9125 20.8031Z" fill="white"/>
</svg>
