<svg width="24" height="16" viewBox="0 0 24 16" fill="none" xmlns="http://www.w3.org/2000/svg">
<path fill-rule="evenodd" clip-rule="evenodd" d="M8.56029 14.8015C8.279 15.0827 7.89753 15.2407 7.49978 15.2407C7.10203 15.2407 6.72056 15.0827 6.43927 14.8015L0.439185 8.80146C0.157975 8.52016 0 8.1387 0 7.74094C0 7.34319 0.157975 6.96173 0.439185 6.68043L6.43927 0.680351C6.72217 0.407111 7.10108 0.255916 7.49438 0.259334C7.88768 0.262752 8.26391 0.420508 8.54202 0.698624C8.82014 0.976739 8.97789 1.35296 8.98131 1.74626C8.98473 2.13956 8.83353 2.51847 8.56029 2.80138L5.12075 6.24093H22.5C22.8978 6.24093 23.2793 6.39896 23.5607 6.68027C23.842 6.96158 24 7.34311 24 7.74094C24 8.13878 23.842 8.52031 23.5607 8.80162C23.2793 9.08293 22.8978 9.24096 22.5 9.24096H5.12075L8.56029 12.6805C8.8415 12.9618 8.99948 13.3433 8.99948 13.741C8.99948 14.1388 8.8415 14.5202 8.56029 14.8015Z" fill="white"/>
</svg>
