<svg width="16" height="16" viewBox="0 0 16 16" fill="none" xmlns="http://www.w3.org/2000/svg">
<path d="M15.6003 7.35059L12.381 10.1601L13.3453 14.343C13.3964 14.5617 13.3818 14.7906 13.3035 15.001C13.2251 15.2114 13.0865 15.3941 12.9049 15.5262C12.7233 15.6583 12.5068 15.7339 12.2825 15.7436C12.0582 15.7533 11.8359 15.6967 11.6436 15.5808L7.99536 13.368L4.35495 15.5808C4.16263 15.6967 3.94041 15.7533 3.71607 15.7436C3.49174 15.7339 3.27524 15.6583 3.09365 15.5262C2.91206 15.3941 2.77343 15.2114 2.6951 15.001C2.61676 14.7906 2.6022 14.5617 2.65323 14.343L3.61616 10.1644L0.396178 7.35059C0.22587 7.20371 0.10272 7.00981 0.0421704 6.79321C-0.0183792 6.57662 -0.0136323 6.34697 0.0558155 6.13306C0.125263 5.91915 0.256321 5.73051 0.432553 5.59079C0.608785 5.45106 0.822346 5.36648 1.04646 5.34765L5.29075 4.98004L6.94749 1.02841C7.03401 0.82106 7.17994 0.643945 7.36692 0.519364C7.55389 0.394784 7.77354 0.328308 7.99822 0.328308C8.22289 0.328308 8.44254 0.394784 8.62952 0.519364C8.81649 0.643945 8.96242 0.82106 9.04894 1.02841L10.7107 4.98004L14.9535 5.34765C15.1777 5.36648 15.3912 5.45106 15.5674 5.59079C15.7437 5.73051 15.8747 5.91915 15.9442 6.13306C16.0136 6.34697 16.0184 6.57662 15.9578 6.79321C15.8973 7.00981 15.7741 7.20371 15.6038 7.35059H15.6003Z" fill="white"/>
</svg>
