<svg width="24" height="16" viewBox="0 0 24 16" fill="none" xmlns="http://www.w3.org/2000/svg">
<path fill-rule="evenodd" clip-rule="evenodd" d="M15.4397 0.698463C15.721 0.417253 16.1025 0.259277 16.5002 0.259277C16.898 0.259277 17.2794 0.417253 17.5607 0.698463L23.5608 6.69854C23.842 6.97984 24 7.36131 24 7.75906C24 8.15681 23.842 8.53828 23.5608 8.81957L17.5607 14.8197C17.2778 15.0929 16.8989 15.2441 16.5056 15.2407C16.1123 15.2373 15.7361 15.0795 15.458 14.8014C15.1799 14.5233 15.0221 14.147 15.0187 13.7537C15.0153 13.3604 15.1665 12.9815 15.4397 12.6986L18.8793 9.25908H1.50002C1.10219 9.25908 0.720654 9.10104 0.439346 8.81973C0.158037 8.53842 0 8.15689 0 7.75906C0 7.36123 0.158037 6.97969 0.439346 6.69838C0.720654 6.41707 1.10219 6.25904 1.50002 6.25904H18.8793L15.4397 2.81949C15.1585 2.5382 15.0005 2.15673 15.0005 1.75898C15.0005 1.36123 15.1585 0.979758 15.4397 0.698463Z" fill="white"/>
</svg>
