<svg width="328" height="47" viewBox="0 0 328 47" fill="none" xmlns="http://www.w3.org/2000/svg">
<path d="M34.239 16.2926C35.5204 15.0833 36.4094 13.5174 36.791 11.7974C37.1726 10.0773 37.0293 8.28233 36.3797 6.64463C35.73 5.00693 34.6038 3.60187 33.1468 2.61123C31.6898 1.62059 29.9691 1.08996 28.2072 1.08798H13.8028C12.041 1.08996 10.3202 1.62059 8.86325 2.61123C7.40627 3.60187 6.28008 5.00693 5.63038 6.64463C4.98069 8.28233 4.83739 10.0773 5.21902 11.7974C5.60065 13.5174 6.48965 15.0833 7.77101 16.2926C6.87587 17.133 6.16691 18.1519 5.68989 19.2833C5.21286 20.4147 4.97838 21.6335 5.00157 22.8612C5.02475 24.0888 5.3051 25.298 5.82451 26.4106C6.34392 27.5232 7.09085 28.5145 8.01708 29.3205C6.85871 30.4122 5.98986 31.7746 5.48866 33.2854C4.98747 34.7961 4.86966 36.4077 5.14582 37.9753C5.42198 39.5428 6.08346 41.0171 7.07076 42.2656C8.05806 43.5141 9.34022 44.4976 10.8019 45.1277C12.2636 45.7577 13.859 46.0146 15.4445 45.8751C17.0301 45.7356 18.5562 45.2042 19.8854 44.3287C21.2147 43.4531 22.3054 42.2609 23.0596 40.8592C23.8138 39.4575 24.2077 37.8903 24.206 36.2986V30.5309C26.0917 31.4838 28.2572 31.7266 30.3071 31.2151C32.3571 30.7036 34.1546 29.4718 35.3716 27.7447C36.5886 26.0177 37.1438 23.9105 36.9359 21.8079C36.728 19.7054 35.7707 17.7478 34.239 16.2926ZM32.2084 9.89065C32.2084 10.9518 31.7869 11.9696 31.0365 12.7199C30.2861 13.4703 29.2684 13.8919 28.2072 13.8919H24.206V5.88944H28.2072C29.2684 5.88944 30.2861 6.31099 31.0365 7.06136C31.7869 7.81174 32.2084 8.82946 32.2084 9.89065ZM9.80162 9.89065C9.80162 8.82946 10.2232 7.81174 10.9736 7.06136C11.7239 6.31099 12.7416 5.88944 13.8028 5.88944H19.4045V13.8919H13.8028C12.7416 13.8919 11.7239 13.4703 10.9736 12.7199C10.2232 11.9696 9.80162 10.9518 9.80162 9.89065ZM13.8028 26.6957C12.7416 26.6957 11.7239 26.2742 10.9736 25.5238C10.2232 24.7734 9.80162 23.7557 9.80162 22.6945C9.80162 21.6333 10.2232 20.6156 10.9736 19.8652C11.7239 19.1149 12.7416 18.6933 13.8028 18.6933H19.4045V26.6957H13.8028ZM19.4045 36.2986C19.4045 37.2483 19.1229 38.1766 18.5953 38.9662C18.0677 39.7558 17.3179 40.3712 16.4405 40.7346C15.5632 41.098 14.5978 41.1931 13.6664 41.0078C12.735 40.8226 11.8794 40.3653 11.2079 39.6938C10.5364 39.0223 10.0791 38.1668 9.89388 37.2354C9.70862 36.304 9.8037 35.3386 10.1671 34.4612C10.5305 33.5839 11.1459 32.834 11.9355 32.3064C12.7251 31.7788 13.6534 31.4972 14.6031 31.4972H19.4045V36.2986ZM28.2072 26.6957C27.4158 26.6957 26.6422 26.4611 25.9842 26.0214C25.3262 25.5818 24.8134 24.9568 24.5106 24.2257C24.2077 23.4946 24.1285 22.6901 24.2829 21.9139C24.4373 21.1378 24.8183 20.4248 25.3779 19.8652C25.9375 19.3057 26.6504 18.9246 27.4266 18.7702C28.2028 18.6158 29.0073 18.695 29.7384 18.9979C30.4695 19.3007 31.0944 19.8136 31.5341 20.4716C31.9737 21.1296 32.2084 21.9032 32.2084 22.6945C32.2084 23.7557 31.7869 24.7734 31.0365 25.5238C30.2861 26.2742 29.2684 26.6957 28.2072 26.6957Z" fill="black"/>
</svg>
