<svg width="26" height="27" viewBox="0 0 26 27" fill="none" xmlns="http://www.w3.org/2000/svg">
<g clip-path="url(#clip0_11_23)">
<path d="M9.05735 1.76719C6.45954 2.66839 4.2192 4.3789 2.66539 6.64747C1.11158 8.91604 0.326205 11.6231 0.424621 14.371C0.523037 17.1189 1.50006 19.7629 3.21218 21.9145C4.92429 24.0661 7.28126 25.6119 9.93688 26.325C12.0898 26.8805 14.3455 26.9049 16.51 26.3961C18.4708 25.9557 20.2836 25.0136 21.7709 23.662C23.3189 22.2124 24.4425 20.3683 25.0209 18.328C25.6494 16.1091 25.7613 13.7758 25.348 11.507H13.258V16.5222H20.2597C20.1198 17.3221 19.8199 18.0855 19.378 18.7668C18.9362 19.4481 18.3614 20.0332 17.6881 20.4872C16.8333 21.053 15.8694 21.4335 14.8586 21.6044C13.8449 21.7929 12.8051 21.7929 11.7914 21.6044C10.7639 21.3922 9.79193 20.9681 8.9375 20.3592C7.56468 19.3874 6.53388 18.0069 5.99219 16.4145C5.4415 14.7923 5.4415 13.0338 5.99219 11.4116C6.37778 10.2745 7.0152 9.23921 7.85688 8.38297C8.82008 7.38511 10.0395 6.67184 11.3814 6.3214C12.7233 5.97097 14.1358 5.99692 15.4639 6.3964C16.5015 6.71475 17.4503 7.27122 18.2345 8.0214C19.024 7.23599 19.8121 6.44854 20.5989 5.65906C21.0052 5.23453 21.448 4.83031 21.8481 4.39562C20.6508 3.28152 19.2454 2.41455 17.7125 1.84437C14.921 0.830759 11.8665 0.803519 9.05735 1.76719Z" fill="white"/>
<path d="M9.05739 1.7672C11.8663 0.802874 14.9208 0.829397 17.7125 1.84235C19.2457 2.41641 20.6504 3.28755 21.8461 4.40579C21.4399 4.84048 21.0113 5.24673 20.5969 5.66923C19.8088 6.456 19.0213 7.24006 18.2346 8.02141C17.4503 7.27123 16.5015 6.71476 15.4639 6.39641C14.1363 5.99553 12.7238 5.96808 11.3816 6.31708C10.0393 6.66608 8.81915 7.37804 7.85489 8.37485C7.01321 9.2311 6.37578 10.2664 5.9902 11.4034L1.77942 8.14329C3.28662 5.15443 5.89625 2.86818 9.05739 1.7672Z" fill="#E33629"/>
<path d="M0.662148 11.373C0.888306 10.2513 1.26406 9.16502 1.77934 8.14331L5.99012 11.4116C5.43942 13.0338 5.43942 14.7924 5.99012 16.4146C4.5872 17.4979 3.18361 18.5866 1.77934 19.6808C0.489797 17.114 0.0965107 14.1893 0.662148 11.373Z" fill="#F8BD00"/>
<path d="M13.258 11.505H25.348C25.7613 13.7738 25.6495 16.1071 25.021 18.3259C24.4425 20.3663 23.3189 22.2104 21.771 23.66C20.412 22.5997 19.047 21.5475 17.6881 20.4872C18.3619 20.0328 18.9369 19.447 19.3788 18.765C19.8206 18.0829 20.1203 17.3187 20.2597 16.5181H13.258C13.256 14.8484 13.258 13.1767 13.258 11.505Z" fill="#587DBD"/>
<path d="M1.77734 19.6808C3.18161 18.5975 4.58521 17.5087 5.98812 16.4146C6.53089 18.0075 7.56317 19.3881 8.9375 20.3592C9.79459 20.9653 10.7687 21.3859 11.7975 21.5942C12.8112 21.7828 13.851 21.7828 14.8647 21.5942C15.8755 21.4234 16.8393 21.0428 17.6942 20.4771C19.0531 21.5374 20.4181 22.5896 21.777 23.6499C20.2899 25.0021 18.4771 25.9449 16.5161 26.386C14.3516 26.8948 12.0959 26.8704 9.94297 26.3149C8.24018 25.8602 6.64965 25.0587 5.27109 23.9606C3.8121 22.8021 2.62038 21.3422 1.77734 19.6808Z" fill="#319F43"/>
</g>
<defs>
<clipPath id="clip0_11_23">
<rect width="26" height="26" fill="white" transform="translate(0 0.912048)"/>
</clipPath>
</defs>
</svg>
